<?xml version="1.0" encoding="UTF-8" standalone="no"?>
<svg
   xmlns:dc="http://purl.org/dc/elements/1.1/"
   xmlns:cc="http://creativecommons.org/ns#"
   xmlns:rdf="http://www.w3.org/1999/02/22-rdf-syntax-ns#"
   xmlns:svg="http://www.w3.org/2000/svg"
   xmlns="http://www.w3.org/2000/svg"
   id="svg4951"
   version="1.1"
   viewBox="0 0 5.1101599 5.1101599"
   height="5.1101599mm"
   width="5.1101599mm">
  <defs
     id="defs4945" />
  <metadata
     id="metadata4948">
    <rdf:RDF>
      <cc:Work
         rdf:about="">
        <dc:format>image/svg+xml</dc:format>
        <dc:type
           rdf:resource="http://purl.org/dc/dcmitype/StillImage" />
        <dc:title></dc:title>
      </cc:Work>
    </rdf:RDF>
  </metadata>
  <g
     transform="translate(-103.27825,-146.27825)"
     id="layer1">
    <path
       style="stroke-width:0.26458332"
       d="m 104.47152,150.36712 c -0.0442,0 -0.0881,-0.0167 -0.12144,-0.0503 -0.0672,-0.0672 -0.0672,-0.17595 0,-0.24315 l 0.93107,-0.93107 c 0.0672,-0.0672 0.17595,-0.0672 0.24315,0 0.0672,0.0672 0.0672,0.17595 0,0.24315 l -0.93107,0.93107 c -0.0336,0.0333 -0.0775,0.0503 -0.12171,0.0503 z"
       id="path4908" />
    <path
       style="stroke-width:0.26458332"
       d="m 106.2691,148.56954 c -0.0442,0 -0.0881,-0.0167 -0.12144,-0.0503 -0.0672,-0.0672 -0.0672,-0.17595 0,-0.24315 l 0.94535,-0.94536 c 0.0672,-0.0672 0.17595,-0.0672 0.24316,0 0.0672,0.0672 0.0672,0.17595 0,0.24316 l -0.94536,0.94535 c -0.0339,0.0336 -0.0778,0.0503 -0.12171,0.0503 z"
       id="path4910" />
    <path
       style="stroke-width:0.26458332"
       d="m 107.21922,150.39094 c -0.0442,0 -0.0881,-0.0167 -0.12144,-0.0503 l -0.94086,-0.94059 c -0.0672,-0.0669 -0.0672,-0.17595 0,-0.24315 0.0672,-0.0672 0.17595,-0.0672 0.24315,0 l 0.94086,0.94059 c 0.0672,0.0669 0.0672,0.17595 0,0.24315 -0.0339,0.0336 -0.0778,0.0503 -0.12171,0.0503 z"
       id="path4912" />
    <path
       style="stroke-width:0.26458332"
       d="m 105.3928,148.56478 c -0.0442,0 -0.0881,-0.0167 -0.12144,-0.0503 l -0.94562,-0.94562 c -0.0672,-0.0672 -0.0672,-0.17595 0,-0.24315 0.0672,-0.0672 0.17595,-0.0672 0.24315,0 l 0.94562,0.94562 c 0.0672,0.0672 0.0672,0.17595 0,0.24315 -0.0336,0.0333 -0.0775,0.0503 -0.12171,0.0503 z"
       id="path4914" />
    <path
       style="stroke-width:0.26458332"
       d="m 105.83333,149.57258 c -0.40772,0 -0.73924,-0.33152 -0.73924,-0.73925 0,-0.40772 0.33152,-0.73924 0.73924,-0.73924 0.40773,0 0.73925,0.33152 0.73925,0.73924 0,0.40773 -0.33152,0.73925 -0.73925,0.73925 z"
       id="path4916" />
    <path
       style="stroke-width:0.26458332"
       d="m 107.64917,147.75674 c -0.40772,0 -0.73925,-0.33152 -0.73925,-0.73924 0,-0.40772 0.33153,-0.73925 0.73925,-0.73925 0.40772,0 0.73924,0.33153 0.73924,0.73925 0,0.40772 -0.33178,0.73924 -0.73924,0.73924 z m 0,-1.13453 c -0.21802,0 -0.39529,0.17727 -0.39529,0.39529 0,0.21801 0.17727,0.39529 0.39529,0.39529 0.21802,0 0.39529,-0.17728 0.39529,-0.39529 0,-0.21802 -0.17754,-0.39529 -0.39529,-0.39529 z"
       id="path4918" />
    <path
       style="stroke-width:0.26458332"
       d="m 107.64917,151.38841 c -0.40772,0 -0.73925,-0.33152 -0.73925,-0.73924 0,-0.40772 0.33153,-0.73925 0.73925,-0.73925 0.40772,0 0.73924,0.33153 0.73924,0.73925 -2.6e-4,0.40746 -0.33178,0.73924 -0.73924,0.73924 z m 0,-1.13479 c -0.21802,0 -0.39529,0.17727 -0.39529,0.39555 0,0.21802 0.17727,0.39529 0.39529,0.39529 0.21802,0 0.39529,-0.17727 0.39529,-0.39529 0,-0.21802 -0.17754,-0.39555 -0.39529,-0.39555 z"
       id="path4920" />
    <path
       style="stroke-width:0.26458332"
       d="m 104.0175,151.38841 c -0.40772,0 -0.73925,-0.33152 -0.73925,-0.73924 0,-0.40772 0.33153,-0.73925 0.73925,-0.73925 0.40772,0 0.73924,0.33153 0.73924,0.73925 0,0.40746 -0.33152,0.73924 -0.73924,0.73924 z m 0,-1.13479 c -0.21802,0 -0.39529,0.17727 -0.39529,0.39555 0,0.21802 0.17727,0.39529 0.39529,0.39529 0.21801,0 0.39529,-0.17727 0.39529,-0.39529 2.6e-4,-0.21802 -0.17728,-0.39555 -0.39529,-0.39555 z"
       id="path4922" />
    <path
       style="stroke-width:0.26458332"
       d="m 104.0175,147.75674 c -0.40772,0 -0.73925,-0.33152 -0.73925,-0.73924 0,-0.40772 0.33153,-0.73925 0.73925,-0.73925 0.40772,0 0.73924,0.33153 0.73924,0.73925 0,0.40772 -0.33152,0.73924 -0.73924,0.73924 z m 0,-1.13453 c -0.21802,0 -0.39529,0.17727 -0.39529,0.39529 0,0.21801 0.17727,0.39529 0.39529,0.39529 0.21801,0 0.39529,-0.17728 0.39529,-0.39529 0,-0.21802 -0.17728,-0.39529 -0.39529,-0.39529 z"
       id="path4924" />
  </g>
</svg>
