<?xml version="1.0" encoding="UTF-8" standalone="no"?>
<!-- Created with Inkscape (http://www.inkscape.org/) -->

<svg
   width="61.080261"
   height="61.080261"
   viewBox="0 0 61.080261 61.080261"
   version="1.1"
   id="svg1"
   xml:space="preserve"
   sodipodi:docname="logo.svg"
   inkscape:version="1.3.2 (091e20e, 2023-11-25, custom)"
   xmlns:inkscape="http://www.inkscape.org/namespaces/inkscape"
   xmlns:sodipodi="http://sodipodi.sourceforge.net/DTD/sodipodi-0.dtd"
   xmlns="http://www.w3.org/2000/svg"
   xmlns:svg="http://www.w3.org/2000/svg"><sodipodi:namedview
     id="namedview1"
     pagecolor="#ffffff"
     bordercolor="#000000"
     borderopacity="0.25"
     inkscape:showpageshadow="2"
     inkscape:pageopacity="0.0"
     inkscape:pagecheckerboard="0"
     inkscape:deskcolor="#d1d1d1"
     inkscape:document-units="px"
     inkscape:zoom="4.91875"
     inkscape:cx="79.085133"
     inkscape:cy="-3.1512071"
     inkscape:window-width="1920"
     inkscape:window-height="1001"
     inkscape:window-x="1070"
     inkscape:window-y="1347"
     inkscape:window-maximized="1"
     inkscape:current-layer="layer1" /><defs
     id="defs1" /><g
     inkscape:label="Layer 1"
     inkscape:groupmode="layer"
     id="layer1"
     transform="translate(-120.57262,-269.74792)"><ellipse
       style="fill:#f9f9f9"
       id="path1"
       cx="151.11275"
       cy="300.28806"
       rx="30.540133"
       ry="30.540129" /><path
       d="m 156.59017,282.77651 c -9.1e-4,-0.004 0.0601,0.008 0.17912,0.0317 0.1188,0.0242 0.19041,0.0313 0.41849,0.093 0.22808,0.0613 0.41354,0.09 0.73941,0.19726 0.32592,0.10751 0.6101,0.18153 1.02224,0.34195 0.41209,0.16036 0.77731,0.30133 1.2637,0.52008 0.48639,0.2187 0.84216,0.3846 1.37616,0.69272 0.53398,0.3081 0.9589,0.54637 1.52079,0.94984 0.56191,0.40351 1.02285,0.74252 1.59313,1.24359 0.57024,0.50109 1.03089,0.95816 1.59056,1.55549 0.55965,0.59731 0.96575,1.11754 1.46336,1.83122 0.49764,0.71367 0.90383,1.3268 1.31402,2.14313 0.41019,0.81634 0.77606,1.53072 1.07624,2.43119 0.30015,0.90054 0.54508,1.75498 0.76295,2.70735 0.21789,0.95235 0.29477,1.84897 0.37222,2.84271 0.0774,0.99374 0.022,1.9344 -0.0504,2.94043 -0.0722,1.006 -0.26912,1.96432 -0.49325,2.95177 -0.22413,0.98743 -0.55901,1.93754 -0.92826,2.87605 -0.36927,0.93857 -0.8439,1.85056 -1.34346,2.71297 -0.49961,0.86242 -1.10708,1.70624 -1.71589,2.47016 -0.60878,0.76393 -1.32961,1.51668 -2.02241,2.16538 -0.6928,0.64872 -1.50044,1.29787 -2.24963,1.82035 -0.74924,0.52252 -1.61516,1.0673 -2.39223,1.45814 -0.77704,0.3909 -1.64101,0.77623 -2.40376,1.07263 -0.76272,0.29641 -1.68621,0.58224 -2.42574,0.7524 -0.73949,0.17024 -1.5827,0.34157 -2.26843,0.43047 -0.68571,0.089 -1.4855,0.1646 -2.10135,0.18335 -0.61588,0.0182 -1.2713,0.0121 -1.80418,0.002 -0.53285,-0.0101 -1.18857,-0.0849 -1.6273,-0.13655 -0.43877,-0.0516 -0.91776,-0.12466 -1.25582,-0.18113 -0.33805,-0.0564 -0.71572,-0.13313 -0.94622,-0.18254 -0.23052,-0.0494 -0.40697,-0.0862 -0.52549,-0.10973 -0.1186,-0.0235 -0.17912,-0.0337 -0.17791,-0.0296 0.002,0.006 0.006,0.0121 0.008,0.0202 0.004,0.006 0.008,0.0121 0.0121,0.0182 0.004,0.006 0.0101,0.0121 0.0141,0.0182 0.006,0.006 0.0101,0.0121 0.0182,0.0182 0.006,0.006 0.0121,0.0121 0.0202,0.0182 0.006,0.006 0.0141,0.0121 0.022,0.0182 0.008,0.006 0.0162,0.0121 0.024,0.0162 0.008,0.006 0.0162,0.0101 0.0258,0.0162 0.008,0.004 0.0182,0.0101 0.0274,0.0162 0.0101,0.004 0.0182,0.0101 0.0288,0.0162 0.0101,0.004 0.0202,0.0101 0.0301,0.0162 0.0101,0.004 0.0205,0.0101 0.0311,0.0162 0.0101,0.004 0.021,0.0101 0.0319,0.0161 0.0101,0.004 0.0214,0.0101 0.0323,0.0162 0.0101,0.004 0.0218,0.0101 0.0324,0.0161 0.0101,0.004 0.0218,0.0101 0.0327,0.0162 0.0101,0.004 0.0218,0.0101 0.0324,0.0162 0.0101,0.004 0.0215,0.0101 0.0321,0.0161 0.0101,0.004 0.0212,0.0101 0.0314,0.0162 0.0101,0.004 0.0205,0.0101 0.0306,0.0161 0.0101,0.004 0.0202,0.0101 0.0296,0.0162 0.0101,0.004 0.0182,0.0101 0.0284,0.0162 0.0101,0.004 0.0182,0.0101 0.027,0.0162 0.008,0.004 0.0162,0.0101 0.0252,0.0162 0.008,0.006 0.0162,0.0121 0.0235,0.0162 0.008,0.006 0.0141,0.0121 0.0212,0.0162 0.006,0.006 0.0121,0.0121 0.0182,0.0182 0.006,0.006 0.0121,0.0121 0.0162,0.0182 0.004,0.006 0.0101,0.0121 0.0141,0.0182 0.004,0.006 0.008,0.0121 0.0101,0.0182 0.002,0.006 0.006,0.0121 0.008,0.0202 0.002,0.006 0.004,0.0141 0.004,0.0202 -9.1e-4,0.006 0.0511,0.0252 0.1539,0.0563 0.10287,0.0313 0.37045,0.0926 0.57325,0.13696 0.20277,0.0445 0.56344,0.12807 0.86071,0.17488 0.29725,0.0468 0.74831,0.12807 1.13362,0.16721 0.38536,0.0392 0.92109,0.0954 1.38737,0.1178 0.4663,0.0226 1.07828,0.0333 1.61772,0.0314 0.53939,-0.002 1.31919,-0.0603 1.92103,-0.12284 0.60187,-0.0625 1.42625,-0.18839 2.07664,-0.32167 0.65033,-0.13333 1.50227,-0.35164 2.1861,-0.56291 0.68384,-0.21124 1.5416,-0.54041 2.24335,-0.83391 0.70178,-0.29349 1.6255,-0.76121 2.31065,-1.17166 0.68516,-0.41043 1.49851,-0.94674 2.1663,-1.4393 0.66778,-0.49259 1.48207,-1.18631 2.08915,-1.78691 0.60711,-0.60062 1.28055,-1.34708 1.8374,-2.01719 0.55687,-0.67012 1.15817,-1.5667 1.61545,-2.32043 0.45733,-0.75373 0.96463,-1.69619 1.30521,-2.51318 0.34058,-0.81693 0.68465,-1.75267 0.94001,-2.59651 0.25546,-0.84381 0.48605,-1.84921 0.60957,-2.71172 0.12345,-0.86246 0.21306,-1.81145 0.2488,-2.66465 0.0357,-0.85323 0.002,-1.81412 -0.0859,-2.63918 -0.0883,-0.82506 -0.2256,-1.69592 -0.38758,-2.47794 -0.16198,-0.78204 -0.38905,-1.6176 -0.649,-2.33242 -0.25997,-0.71482 -0.54136,-1.44742 -0.84883,-2.09366 -0.30745,-0.64624 -0.64634,-1.29082 -0.98702,-1.86054 -0.34067,-0.5697 -0.70681,-1.12528 -1.06505,-1.61282 -0.35825,-0.48754 -0.72058,-0.96076 -1.0797,-1.36316 -0.35913,-0.40238 -0.70832,-0.77764 -1.03506,-1.11091 -0.32674,-0.33328 -0.64207,-0.64033 -0.93815,-0.88988 -0.29609,-0.24957 -0.55424,-0.48456 -0.79277,-0.66778 -0.23851,-0.18336 -0.44094,-0.33973 -0.60448,-0.46737 -0.16358,-0.12768 -0.29457,-0.22051 -0.38082,-0.28425 -0.0863,-0.0637 -0.1295,-0.0986 -0.12647,-0.10287 0.002,-0.004 0.0518,0.023 0.14421,0.0799 0.0922,0.0567 0.23114,0.14482 0.40118,0.26727 0.17003,0.12244 0.37904,0.27425 0.62422,0.45354 0.24517,0.17932 0.53151,0.40704 0.8221,0.66867 0.29058,0.26159 0.62495,0.55479 0.95873,0.88746 0.3338,0.33268 0.69261,0.71377 1.05874,1.11693 0.36614,0.40312 0.7393,0.89173 1.10424,1.38163 0.36499,0.4899 0.73943,1.0645 1.08631,1.63801 0.3469,0.57348 0.6908,1.24026 1.00381,1.8916 0.31301,0.65133 0.63976,1.42901 0.86944,2.16188 0.2297,0.73285 0.47402,1.56094 0.63948,2.35019 0.1654,0.78926 0.29258,1.68764 0.38332,2.52056 0.0908,0.8329 0.0988,1.83041 0.064,2.69201 -0.0349,0.86157 -0.14704,1.83602 -0.27081,2.70703 -0.12365,0.87101 -0.39681,1.9056 -0.6539,2.75791 -0.25714,0.8523 -0.62806,1.88435 -1.01243,2.69125 -0.38434,0.80689 -0.87192,1.72221 -1.33321,2.48373 -0.46123,0.76147 -1.12192,1.66231 -1.68376,2.33941 -0.56183,0.67712 -1.31203,1.50668 -1.95319,2.08349 -0.64115,0.57682 -1.42654,1.23161 -2.10038,1.72981 -0.67384,0.4982 -1.59561,1.0906 -2.30599,1.47262 -0.71039,0.38207 -1.59071,0.81092 -2.29891,1.10861 -0.70823,0.29774 -1.60594,0.5984 -2.29613,0.81347 -0.69017,0.21504 -1.57985,0.3993 -2.23635,0.5361 -0.65648,0.13675 -1.51576,0.22311 -2.12351,0.28888 -0.60771,0.0658 -1.41888,0.0797 -1.96387,0.0847 -0.54495,0.004 -1.29677,-0.0216 -1.76651,-0.0643 -0.46981,-0.0425 -1.02519,-0.0993 -1.41279,-0.15391 -0.38761,-0.0546 -0.85843,-0.13292 -1.15724,-0.1902 -0.29881,-0.0573 -0.68055,-0.13373 -0.88468,-0.18336 -0.2041,-0.0494 -0.3608,-0.0871 -0.46676,-0.11214 -0.10589,-0.025 -0.16116,-0.0374 -0.16217,-0.0359 -0.004,0.006 0.0635,0.0294 0.19807,0.0713 0.13474,0.0417 0.46308,0.14442 0.73106,0.20732 0.26795,0.0627 0.72582,0.18254 1.12005,0.25128 0.39425,0.0688 0.977,0.17246 1.48932,0.23363 0.5123,0.0612 1.33856,0.15229 1.9609,0.16278 0.62234,0.0101 1.54932,0.0293 2.26646,-0.0306 0.71714,-0.0599 1.7244,-0.16076 2.51867,-0.30696 0.79427,-0.14624 1.85181,-0.40454 2.70379,-0.64904 0.85196,-0.24449 2.03279,-0.72304 2.90413,-1.11604 0.87131,-0.39298 2.0245,-1.05169 2.88146,-1.59757 0.85694,-0.54589 1.93344,-1.40355 2.74177,-2.10002 0.80833,-0.69653 1.85436,-1.81083 2.53838,-2.68344 0.68402,-0.8726 1.50147,-2.06784 2.06451,-3.06044 0.56306,-0.9926 1.24228,-2.41799 1.60232,-3.52535 0.36002,-1.10734 0.76537,-2.52849 0.95616,-3.69124 0.19081,-1.16281 0.31049,-2.63074 0.32509,-3.8137 0.0141,-1.18298 -0.13615,-2.72643 -0.35199,-3.8849 -0.21593,-1.15856 -0.60036,-2.53666 -0.97674,-3.63887 -0.37628,-1.10223 -1.02293,-2.43785 -1.59012,-3.42864 -0.56718,-0.9908 -1.34918,-2.10435 -2.0321,-2.97858 -0.68291,-0.87423 -1.65408,-1.87497 -2.46078,-2.57452 -0.80672,-0.69955 -1.80238,-1.47691 -2.66032,-2.02298 -0.85794,-0.54605 -1.90553,-1.13521 -2.78045,-1.52275 -0.87489,-0.38753 -1.87026,-0.75458 -2.71371,-1.03078 -0.84345,-0.27625 -1.8694,-0.49946 -2.66735,-0.63278 -0.79792,-0.13333 -1.68488,-0.23363 -2.40442,-0.28134 -0.71958,-0.0478 -1.51507,-0.045 -2.13882,-0.0252 -0.62377,0.0202 -1.31035,0.0781 -1.82392,0.14402 -0.5135,0.066 -1.02525,0.14825 -1.42143,0.21736 -0.39621,0.069 -0.78308,0.16076 -1.05415,0.21937 -0.27109,0.0585 -0.52948,0.12788 -0.66878,0.16157 -0.13937,0.0337 -0.21208,0.0478 -0.2139,0.041 -0.002,-0.006 0.0673,-0.0339 0.20343,-0.0799 0.13595,-0.046 0.39414,-0.12767 0.66263,-0.19726 0.26849,-0.0696 0.65747,-0.17287 1.05173,-0.25171 0.39425,-0.0789 0.91023,-0.17165 1.4223,-0.24633 0.51207,-0.0748 1.21235,-0.1426 1.83543,-0.17023 0.62307,-0.0276 1.43546,-0.0375 2.15496,0.004 0.71948,0.041 1.62598,0.13676 2.42425,0.26407 0.79823,0.12748 1.85611,0.35202 2.70046,0.62313 0.84434,0.27109 1.86229,0.641 2.73813,1.02413 0.87584,0.38318 1.95702,0.98405 2.81608,1.52641 0.85903,0.54237 1.88685,1.337 2.69478,2.03339 0.80793,0.6964 1.81742,1.72867 2.50166,2.60024 0.68425,0.87154 1.49147,2.01305 2.06,3.00145 0.5685,0.98843 1.15885,2.29677 1.58885,3.37761 0.42995,1.08085 0.8093,2.60526 1.02671,3.76205 0.21742,1.15666 0.38116,2.75404 0.36828,3.93545 -0.0121,1.18124 -0.12889,2.69189 -0.31763,3.85317 -0.1888,1.16125 -0.59621,2.62646 -0.95398,3.73253 -0.35776,1.10605 -1.04991,2.59023 -1.61033,3.58203 -0.5604,0.99179 -1.39362,2.22918 -2.07466,3.10142 -0.68101,0.87223 -1.70019,1.91751 -2.47064,2.65248 -0.77045,0.73495 -2.00105,1.67473 -2.85446,2.22182 -0.85344,0.54708 -2.03957,1.23957 -2.90727,1.63467 -0.86767,0.39509 -1.97202,0.82308 -2.80758,1.1112 -0.83556,0.28812 -2.0614,0.56693 -2.85227,0.7173 -0.79085,0.15027 -1.82909,0.2702 -2.5431,0.33534 -0.71395,0.0652 -1.67558,0.064 -2.29518,0.0599 -0.61961,-0.004 -1.48438,-0.0793 -1.99466,-0.13293 -0.51025,-0.0536 -1.11323,-0.14604 -1.5059,-0.2061 -0.39271,-0.0599 -0.8728,-0.16822 -1.1398,-0.22115 -0.26704,-0.0528 -0.62006,-0.14382 -0.75448,-0.17447 -0.13454,-0.0309 -0.20191,-0.0432 -0.19787,-0.0361 0.008,0.0141 0.0958,0.0508 0.25887,0.10872 0.16298,0.0579 0.55886,0.17225 0.87146,0.25517 0.31255,0.0831 0.85636,0.20951 1.31084,0.30091 0.45452,0.0914 1.29943,0.23304 1.8903,0.28789 0.59087,0.0549 1.56749,0.13877 2.28026,0.13151 0.71274,-0.008 1.8031,-0.0423 2.61986,-0.13313 0.81675,-0.0908 2.15342,-0.29035 3.04334,-0.5251 0.8899,-0.2348 2.11203,-0.61687 3.05773,-0.96729 0.94559,-0.35063 2.45418,-1.08777 3.38206,-1.65255 0.92777,-0.56506 2.23739,-1.47178 3.12605,-2.20736 0.88863,-0.73559 2.19334,-2.00918 2.95846,-2.94723 0.7652,-0.93801 1.75049,-2.34834 2.39134,-3.4297 0.64086,-1.08141 1.41754,-2.85455 1.84021,-4.07672 0.4227,-1.22208 0.89025,-3.1305 1.062,-4.4379 0.17185,-1.30753 0.27589,-3.27661 0.18456,-4.60756 -0.0914,-1.33093 -0.37576,-3.27444 -0.7243,-4.56737 -0.34867,-1.2927 -1.00939,-3.12769 -1.59539,-4.32536 -0.58603,-1.19764 -1.58753,-2.85301 -2.38096,-3.90446 -0.79347,-1.05159 -2.08347,-2.47067 -3.04488,-3.3322 -0.96138,-0.86153 -2.47278,-2.00649 -3.55314,-2.64343 -1.08033,-0.63694 -2.61109,-1.37974 -3.73107,-1.82924 -1.12009,-0.44946 -2.8606,-0.94216 -3.9915,-1.14697 -1.13088,-0.20486 -2.69869,-0.38794 -3.77938,-0.41901 -1.08078,-0.0311 -2.57398,0.0496 -3.56958,0.16903 -0.99559,0.11921 -2.36852,0.40335 -3.25049,0.64262 -0.88197,0.23924 -2.11387,0.65532 -2.86131,0.97911 -0.74747,0.32371 -1.69226,0.77586 -2.30936,1.11635 -0.61709,0.34055 -1.40834,0.8325 -1.89098,1.16253 -0.48264,0.33005 -1.13566,0.80394 -1.4842,1.09508 -0.34855,0.29112 -0.75496,0.6295 -0.98533,0.84166 -0.23043,0.21207 -0.40698,0.37476 -0.52599,0.48434 -0.119,0.10973 -0.27645,0.27241 -0.27645,0.27241 l 1.15219,-1.07174 1.11043,-0.90205 1.16101,-0.8358 1.33194,-0.83746 1.26092,-0.67722 1.29842,-0.60318 1.33188,-0.52718 1.50499,-0.47761 1.39209,-0.34851 1.41123,-0.26669 1.57669,-0.18819 1.43791,-0.0774 1.44124,0.008 1.59436,0.11155 1.43106,0.20049 1.41752,0.28519 1.39902,0.36882 1.3753,0.45063 1.48915,0.60554 1.3042,0.62857 1.26438,0.70486 1.34952,0.87045 1.15809,0.86659 1.10447,0.93311 1.04748,0.99618 1.08249,1.18044 0.90636,1.12486 0.83943,1.17554 0.84253,1.36135 0.67871,1.27576 0.60396,1.31335 0.57541,1.49831 0.42745,1.38346 0.34644,1.40701 0.26387,1.42613 0.18031,1.60621 0.0724,1.45247 -0.0141,1.45564 -0.12546,1.6224 -0.20845,1.44461 -0.2939,1.43071 -0.3782,1.41176 -0.52669,1.54897 -0.56128,1.35059 -0.64026,1.31476 -0.717,1.27425 -0.89595,1.36733 -0.87984,1.166 -0.94665,1.11163 -1.13414,1.17157 -1.08456,0.97563 -1.13923,0.91067 -1.19008,0.84304 -1.3908,0.84767 -1.29059,0.68017 -1.32822,0.60477 -1.52826,0.57485 -1.39842,0.42607 -1.42197,0.34434 -1.6177,0.28004 -1.45908,0.1535 -1.46706,0.0673 -1.47002,-0.0202 -1.65039,-0.13938 c 0,0 4.16341,0.56573 5.66742,0.39363 1.03957,-0.119 2.75108,-0.4566 3.95832,-0.77749 1.2074,-0.32096 3.37428,-1.16089 4.62897,-1.84491 1.25448,-0.68407 3.17556,-1.93149 4.39692,-2.94169 1.22129,-1.0102 3.02894,-2.94826 4.04832,-4.33055 1.01946,-1.38221 2.54296,-4.11655 3.20513,-6.02857 0.66218,-1.91168 1.386,-5.20889 1.4542,-7.42266 0.0682,-2.21359 -0.34795,-5.85888 -1.0497,-8.04093 -0.70177,-2.18198 -2.28549,-5.4708 -3.64346,-7.2714 -1.35791,-1.80068 -3.95387,-4.43161 -5.83747,-5.6726 -1.88359,-1.24084 -4.92077,-2.70489 -6.80476,-3.24677 -1.88399,-0.54184 -4.68873,-0.96564 -6.11822,-1.0057 -1.42958,-0.0402 -3.11381,0.088 -3.23383,0.10266 -0.12002,0.0141 -0.86494,0.0882 -1.68621,0.21527 -0.82124,0.12707 -2.4366,0.49702 -3.58214,0.84318 -1.14555,0.34619 -3.07494,1.17636 -4.34233,1.83765 -1.26725,0.6613 -3.28986,2.06813 -4.42054,3.05237 -1.13065,0.98421 -2.71884,2.71573 -3.68455,3.95572 -0.96572,1.23987 -2.23532,3.5592 -2.86802,4.99786 -0.63267,1.43872 -1.40108,3.97675 -1.6477,5.45569 -0.24665,1.4788 -0.43331,3.8041 -0.39441,5.15796 0.0389,1.35376 0.31103,3.55733 0.59222,4.80642 0.28117,1.24906 0.9277,3.29671 1.39917,4.37738 0.47142,1.08076 1.31424,2.69367 1.86623,3.58763 0.55198,0.89395 1.57023,2.25605 2.14416,2.94277 0.57394,0.68671 1.48896,1.61848 1.99598,2.11845 2.09728,1.47121 1.58247,0.85644 3.5099,1.59373 2.79956,1.0998 6.49857,-0.089 7.13307,-1.32096 0.63485,-1.2321 -0.18738,-4.55741 -3.56442,-7.91959 -0.51082,-0.46898 -0.73005,-0.64545 -1.31901,-1.29978 -0.58896,-0.65431 -0.73508,-0.8042 -1.31728,-1.67216 -0.5822,-0.86789 -0.76222,-1.18618 -1.27905,-2.25564 -0.51679,-1.06944 -0.57988,-1.3086 -0.91794,-2.57244 -0.33808,-1.26386 -0.37696,-1.60332 -0.4754,-3.00656 -0.0984,-1.40326 -0.13151,-1.64883 0.14543,-3.25013 0.27694,-1.60128 0.28193,-2.03589 0.9957,-3.64005 0.7138,-1.60416 0.91389,-2.12052 2.02195,-3.53764 1.10806,-1.41714 1.53575,-1.84562 2.91265,-2.93285 1.37691,-1.08723 1.73853,-1.34118 3.34174,-1.99542 1.60321,-0.65423 2.11646,-0.88797 3.58952,-1.11116 1.47305,-0.22318 1.99137,-0.32016 3.06349,-0.27539 1.07214,0.0448 1.46746,0.0652 1.55425,0.0762 0.0867,0.0101 0.39563,0.0101 1.19835,0.14704 0.80273,0.13696 1.29526,0.17367 2.49481,0.57036 1.19954,0.39668 1.8614,0.61293 3.24005,1.40086 1.37865,0.78794 2.08024,1.2772 3.35619,2.49805 1.27596,1.22085 1.92369,1.94797 2.87764,3.61165 0.95399,1.66367 1.4903,2.74079 1.94946,4.67583 0.45922,1.93495 0.67049,3.25451 0.54597,5.22954 -0.12445,1.97484 -0.40357,3.42384 -0.98805,5.2192 -0.5845,1.79523 -1.23701,3.07015 -2.28594,4.55778 -1.04893,1.4876 -2.06285,2.60738 -3.35058,3.72406 -1.28777,1.11651 -2.5245,1.89567 -3.89411,2.60111 0.0901,-0.0121 0.21261,-0.0423 0.36548,-0.088 0.1529,-0.0456 0.31323,-0.10125 0.52111,-0.18798 0.2079,-0.0867 0.42838,-0.17186 0.68394,-0.30242 0.2556,-0.13071 0.52499,-0.25589 0.82096,-0.43272 0.29598,-0.17689 0.60241,-0.35093 0.93133,-0.57552 0.32908,-0.22438 0.65996,-0.45445 1.01484,-0.72721 0.3549,-0.27276 0.69751,-0.56361 1.07117,-0.8847 0.37364,-0.3211 0.69951,-0.6578 1.06662,-1.04477 0.36713,-0.38697 0.70651,-0.75643 1.05472,-1.20762 0.3482,-0.45122 0.67605,-0.90344 1.01838,-1.39885 0.34236,-0.49539 0.6056,-0.98589 0.90913,-1.5381 0.30352,-0.5522 0.53516,-1.07749 0.78975,-1.67967 0.25457,-0.6022 0.44474,-1.15766 0.64176,-1.8014 0.19707,-0.64371 0.33883,-1.22245 0.47166,-1.89783 0.13292,-0.6754 0.21666,-1.26998 0.28109,-1.96621 0.0643,-0.69618 0.0819,-1.29734 0.0758,-2.00306 -0.006,-0.70571 -0.0589,-1.30189 -0.13555,-2.00572 -0.0766,-0.70385 -0.19948,-1.28276 -0.34449,-1.97373 -0.14502,-0.69095 -0.33384,-1.2406 -0.54322,-1.90828 -0.20952,-0.66765 -0.40455,-1.12501 -0.70309,-1.74612 -0.29858,-0.62111 -0.53064,-1.10829 -0.87943,-1.68537 -0.34879,-0.57705 -0.61695,-1.01524 -1.0077,-1.5411 -0.39076,-0.52584 -0.68029,-0.91268 -1.10381,-1.3814 -0.42353,-0.46873 -0.71863,-0.80601 -1.16476,-1.21317 -0.44615,-0.40715 -0.82373,-0.73331 -1.26427,-1.09818 -0.44054,-0.36487 -0.74971,-0.56522 -1.19355,-0.8653 -0.44383,-0.30006 -0.70873,-0.47749 -1.14411,-0.71341 -0.43538,-0.23592 -0.76119,-0.41239 -1.16698,-0.6077 -0.40579,-0.19525 -0.70131,-0.32083 -1.07069,-0.47753 -0.36935,-0.15672 -0.62378,-0.2407 -0.94994,-0.36166 -0.32611,-0.12102 -0.52959,-0.17488 -0.80581,-0.26373 -0.27623,-0.089 -0.42041,-0.12626 -0.64027,-0.18758 l 4e-5,-2.1e-4"
       id="path1-38"
       style="stroke-width:0.368901" /></g></svg>
