<?xml version="1.0" standalone="no"?>
<!DOCTYPE svg PUBLIC "-//W3C//DTD SVG 20010904//EN"
 "http://www.w3.org/TR/2001/REC-SVG-20010904/DTD/svg10.dtd">
<svg version="1.0" xmlns="http://www.w3.org/2000/svg"
 width="700.000000pt" height="700.000000pt" viewBox="0 0 700.000000 700.000000"
 preserveAspectRatio="xMidYMid meet">
<metadata>
Created by potrace 1.14, written by Peter Selinger 2001-2017
</metadata>
<g transform="translate(0.000000,700.000000) scale(0.100000,-0.100000)"
fill="#000000" stroke="none">
<path d="M3395 6559 c-776 -33 -1541 -367 -2071 -904 -283 -287 -435 -498
-610 -847 -95 -189 -179 -424 -238 -663 -66 -270 -100 -684 -77 -940 29 -323
65 -504 156 -785 146 -449 386 -851 725 -1211 136 -145 254 -227 380 -265 47
-14 130 -41 186 -60 243 -82 523 -65 742 45 92 46 157 111 168 166 3 20 4 78
1 129 -13 238 -194 554 -471 826 -266 260 -415 472 -531 753 -50 121 -111 368
-125 507 -23 211 -18 364 17 560 39 213 56 270 138 454 83 187 111 237 219
381 154 204 391 422 596 545 89 53 400 181 512 209 168 43 344 64 528 63 379
-3 698 -77 997 -232 246 -127 389 -235 595 -449 126 -130 222 -266 325 -456
128 -237 194 -438 244 -741 18 -113 20 -157 16 -349 -7 -303 -40 -488 -137
-768 -120 -347 -316 -641 -625 -937 -123 -118 -262 -222 -436 -326 -116 -69
-77 -64 76 11 441 215 848 646 1060 1123 132 299 200 593 212 922 33 920 -477
1789 -1290 2196 -141 71 -238 112 -367 155 -47 16 -69 26 -50 23 134 -22 459
-158 638 -267 305 -186 594 -476 793 -797 257 -414 389 -966 350 -1465 -42
-528 -241 -1028 -578 -1445 -86 -107 -266 -287 -375 -375 -275 -221 -634 -408
-969 -504 -418 -119 -885 -135 -1329 -46 -120 24 -120 24 -39 -29 104 -68 564
-119 863 -96 605 46 1148 261 1601 635 167 138 380 367 497 535 490 702 623
1595 357 2395 -93 279 -271 606 -456 835 -98 122 -281 304 -403 400 -155 122
-150 125 10 6 111 -83 340 -307 430 -421 235 -298 414 -662 505 -1030 53 -216
70 -361 70 -620 0 -342 -32 -550 -130 -855 -238 -735 -789 -1344 -1512 -1669
-236 -107 -532 -190 -803 -227 -238 -33 -595 -23 -859 22 -46 8 -86 13 -88 10
-7 -7 220 -46 367 -62 174 -19 492 -14 670 11 720 101 1390 477 1837 1030 193
239 392 595 477 855 59 180 112 399 131 540 26 187 31 518 11 690 -65 554
-263 1028 -614 1470 -382 480 -1005 850 -1622 965 -346 64 -725 61 -1079 -11
-68 -13 -126 -23 -128 -20 -8 8 219 57 350 76 340 48 690 29 1027 -54 483
-120 950 -385 1300 -736 348 -349 612 -815 731 -1290 66 -262 83 -398 83 -680
1 -336 -25 -528 -114 -838 -142 -496 -442 -969 -841 -1328 -394 -355 -933
-614 -1459 -703 -364 -61 -772 -53 -1129 24 -124 26 -91 9 46 -24 465 -111
977 -104 1420 20 426 120 743 279 1091 548 128 100 338 306 439 431 404 502
628 1063 674 1690 41 560 -93 1166 -362 1640 -151 266 -270 427 -477 641 -319
331 -740 595 -1187 744 -71 24 -125 44 -118 44 21 1 174 -50 303 -101 619
-247 1141 -702 1480 -1291 206 -360 337 -769 380 -1194 16 -154 8 -568 -14
-703 -62 -386 -152 -662 -320 -985 -148 -285 -338 -539 -569 -761 -569 -549
-1302 -848 -2092 -855 l-170 -2 115 -12 c184 -21 399 -18 536 5 286 49 520
117 759 219 203 87 432 225 664 399 179 134 440 404 593 612 135 185 333 557
402 757 80 232 154 587 178 846 21 239 -21 684 -92 974 -69 281 -268 717 -451
983 -149 219 -472 550 -703 724 -202 151 -604 354 -886 446 -185 61 -522 124
-722 135 -51 3 -113 7 -138 8 -25 2 -121 0 -215 -4z m73 -96 c-27 -2 -69 -2
-95 0 -27 2 -5 3 47 3 52 0 74 -1 48 -3z m259 0 c-20 -2 -52 -2 -70 0 -17 2 0
4 38 4 39 0 53 -2 32 -4z m-434 -10 c-13 -2 -33 -2 -45 0 -13 2 -3 4 22 4 25
0 35 -2 23 -4z m674 -9 c59 -9 110 -18 113 -21 3 -3 -17 -2 -45 2 -27 4 -97
13 -155 20 -58 7 -86 13 -63 14 23 1 91 -6 150 -15z m-854 -11 c-7 -2 -19 -2
-25 0 -7 3 -2 5 12 5 14 0 19 -2 13 -5z m-56 -9 c-3 -3 -12 -4 -19 -1 -8 3 -5
6 6 6 11 1 17 -2 13 -5z m-60 -10 c-3 -3 -12 -4 -19 -1 -8 3 -5 6 6 6 11 1 17
-2 13 -5z m1126 -1 c-7 -2 -19 -2 -25 0 -7 3 -2 5 12 5 14 0 19 -2 13 -5z
m-1176 -9 c-3 -3 -12 -4 -19 -1 -8 3 -5 6 6 6 11 1 17 -2 13 -5z m1226 -1 c-7
-2 -19 -2 -25 0 -7 3 -2 5 12 5 14 0 19 -2 13 -5z m-1266 -9 c-3 -3 -12 -4
-19 -1 -8 3 -5 6 6 6 11 1 17 -2 13 -5z m1371 -11 c36 -9 62 -18 57 -20 -6 -1
-41 6 -80 16 -38 11 -64 20 -57 20 7 1 43 -7 80 -16z m-1411 -239 c-3 -3 -12
-4 -19 -1 -8 3 -5 6 6 6 11 1 17 -2 13 -5z"/>
<path d="M2798 693 c7 -3 16 -2 19 1 4 3 -2 6 -13 5 -11 0 -14 -3 -6 -6z"/>
</g>
</svg>
